<svg width="22" height="13" viewBox="0 0 22 13" fill="none" xmlns="http://www.w3.org/2000/svg">
<path fill-rule="evenodd" clip-rule="evenodd" d="M10.9714 11.3465C9.80936 12.3062 8.30197 12.8856 6.6548 12.8856C2.97946 12.8856 0 10.001 0 6.44279C0 2.88453 2.97946 0 6.6548 0C8.30197 0 9.80936 0.579368 10.9714 1.53909C12.1335 0.579368 13.6409 0 15.2881 0C18.9634 0 21.9429 2.88453 21.9429 6.44279C21.9429 10.001 18.9634 12.8856 15.2881 12.8856C13.6409 12.8856 12.1335 12.3062 10.9714 11.3465Z" fill="#ED0006"/>
<path fill-rule="evenodd" clip-rule="evenodd" d="M10.9714 11.3465C12.4023 10.1648 13.3096 8.40635 13.3096 6.44279C13.3096 4.47922 12.4023 2.72082 10.9714 1.53909C12.1335 0.579368 13.6409 0 15.2881 0C18.9634 0 21.9429 2.88453 21.9429 6.44279C21.9429 10.001 18.9634 12.8856 15.2881 12.8856C13.6409 12.8856 12.1335 12.3062 10.9714 11.3465Z" fill="#F9A000"/>
<path fill-rule="evenodd" clip-rule="evenodd" d="M10.9714 11.3464C12.4023 10.1647 13.3096 8.40628 13.3096 6.44273C13.3096 4.47918 12.4023 2.72079 10.9714 1.53906C9.54059 2.72079 8.6333 4.47918 8.6333 6.44273C8.6333 8.40628 9.54059 10.1647 10.9714 11.3464Z" fill="#FF5E00"/>
</svg>
